<?xml version="1.0" encoding="UTF-8" standalone="no"?>
<!-- Created with Inkscape (http://www.inkscape.org/) -->

<svg
   version="1.1"
   id="svg1"
   width="242"
   height="246"
   viewBox="0 0 242 246"
   sodipodi:docname="google-logo.svg"
   inkscape:export-filename="python\investapp\design\google-logo.png"
   inkscape:export-xdpi="96"
   inkscape:export-ydpi="96"
   inkscape:version="1.3.2 (091e20e, 2023-11-25, custom)"
   xmlns:inkscape="http://www.inkscape.org/namespaces/inkscape"
   xmlns:sodipodi="http://sodipodi.sourceforge.net/DTD/sodipodi-0.dtd"
   xmlns="http://www.w3.org/2000/svg"
   xmlns:svg="http://www.w3.org/2000/svg">
  <defs
     id="defs1" />
  <sodipodi:namedview
     id="namedview1"
     pagecolor="#ffffff"
     bordercolor="#000000"
     borderopacity="0.25"
     inkscape:showpageshadow="2"
     inkscape:pageopacity="0.0"
     inkscape:pagecheckerboard="0"
     inkscape:deskcolor="#d1d1d1"
     inkscape:zoom="6.2479675"
     inkscape:cx="120.99935"
     inkscape:cy="123"
     inkscape:window-width="3072"
     inkscape:window-height="1814"
     inkscape:window-x="-11"
     inkscape:window-y="-11"
     inkscape:window-maximized="1"
     inkscape:current-layer="g1" />
  <g
     inkscape:groupmode="layer"
     inkscape:label="Image"
     id="g1">
    <path
       style="fill:#020200;stroke:#fefcfc;fill-opacity:1;stroke-opacity:1;stroke-width:2;stroke-dasharray:none"
       d="M 220.66667,105.33333 H 122 v 39.33334 h 56.66667 C 174.46096,175.87329 137.97509,190.95036 110,184.89197 73.813466,177.0553 50.241826,137.74448 64.135803,102.66667 68.204569,92.394348 74.825806,83.626577 83.333333,76.615743 92.661916,68.928304 105.08824,63.099854 117.33333,62.673869 128.08919,62.299703 138.19054,63.423421 148,68.172323 c 4.45325,2.155883 8.79053,6.834248 13.33333,8.28601 2.96337,0.947012 5.51794,-2.646789 7.33334,-4.458333 5.55873,-5.546956 11.04557,-11.173177 16.66666,-16.656901 1.87919,-1.833272 7.07756,-4.828613 5.49899,-7.98405 C 188.31244,42.322001 179.42727,37.89738 174.66667,35.241252 156.65116,25.189677 137.12739,21.1014 116.66667,21.973755 52.52919,24.708293 5.7473818,86.129496 20.589506,148.66667 38.01283,222.07971 135.89066,252.38871 192,201.88631 c 27.53383,-24.78239 33.07312,-61.71619 28.66667,-96.55298 z"
       id="path1" />
  </g>
</svg>
