<?xml version="1.0" encoding="UTF-8" standalone="no"?>
<!-- Created with Inkscape (http://www.inkscape.org/) -->

<svg
   version="1.1"
   id="svg1"
   width="572"
   height="546"
   viewBox="0 0 572 546"
   sodipodi:docname="logo.svg"
   inkscape:export-filename="logo.png"
   inkscape:export-xdpi="96"
   inkscape:export-ydpi="96"
   inkscape:version="1.3.2 (091e20e, 2023-11-25, custom)"
   xmlns:inkscape="http://www.inkscape.org/namespaces/inkscape"
   xmlns:sodipodi="http://sodipodi.sourceforge.net/DTD/sodipodi-0.dtd"
   xmlns="http://www.w3.org/2000/svg"
   xmlns:svg="http://www.w3.org/2000/svg">
  <defs
     id="defs1" />
  <sodipodi:namedview
     id="namedview1"
     pagecolor="#ffffff"
     bordercolor="#000000"
     borderopacity="0.25"
     inkscape:showpageshadow="2"
     inkscape:pageopacity="0.0"
     inkscape:pagecheckerboard="0"
     inkscape:deskcolor="#d1d1d1"
     inkscape:export-bgcolor="#ffffff00"
     inkscape:zoom="2.8150183"
     inkscape:cx="285.96617"
     inkscape:cy="273"
     inkscape:window-width="3072"
     inkscape:window-height="1814"
     inkscape:window-x="-11"
     inkscape:window-y="-11"
     inkscape:window-maximized="1"
     inkscape:current-layer="g1" />
  <g
     inkscape:groupmode="layer"
     inkscape:label="Image"
     id="g1">
    <path
       style="fill:#050709;stroke:#ffffff;stroke-opacity:1;fill-opacity:1;stroke-width:2;stroke-dasharray:none"
       d="M 273.64078,523.9382 C 264.518,522.42941 232.49836,505.2043 208.5,488.89542 135.54593,439.31706 93.589915,377.16596 85.033755,306 84.238035,299.38158 83.98386,271.17241 84.195793,213 L 84.5,129.5 l 2.468066,-5 C 90.414184,117.51858 97.383821,110.86644 104,108.24393 c 3.025,-1.19904 21.025,-6.72658 40,-12.283411 18.975,-5.556835 52.725,-15.530096 75,-22.162801 C 270.16661,58.562116 272.28505,58 278.53681,58 c 3.41395,0 12.10502,2.057935 25.56762,6.054086 22.17928,6.58355 114.59018,33.862703 135.11043,39.883804 14.79251,4.34045 20.80289,7.71321 26.00654,14.59372 7.11138,9.40301 6.7786,4.66089 6.7786,96.59531 0,88.3577 -0.26655,94.30407 -5.17172,115.37308 -5.26257,22.60409 -17.96211,51.77548 -31.56233,72.5 -24.302,37.0323 -60.5818,70.34076 -107.10654,98.33444 -17.04202,10.2541 -38.35306,21.17919 -43.15941,22.12566 -1.925,0.37907 -4.175,0.82254 -5,0.98548 -0.825,0.16295 -3.68665,-0.0654 -6.35922,-0.50738 z m 18.61386,-27.30035 C 371.22423,455.30723 422.76707,400.82628 441.86424,338.5 c 8.41592,-27.46653 9.12899,-37.42606 9.1286,-127.5 -3.1e-4,-72.00789 -0.0653,-74.60658 -1.94307,-77.68618 -3.0183,-4.95012 6.02478,-1.88298 -86.54977,-29.35502 -22.55,-6.691841 -46.4,-13.723376 -53,-15.625631 -6.6,-1.902255 -15.51073,-4.555414 -19.80162,-5.895907 C 285.40749,81.096768 280.20136,80 278.12921,80 276.05705,80 260.89278,84.002573 244.43083,88.894606 227.96887,93.786639 198.975,102.37702 180,107.98433 c -61.34945,18.12942 -67.26664,19.96036 -69.73555,21.57805 -5.33221,3.4938 -5.26445,2.42813 -5.26445,82.79955 0,42.57547 0.43199,78.85799 1.00944,84.78212 4.89029,50.16988 26.54641,94.17204 65.67558,133.44343 25.09034,25.18153 56.37683,47.53188 92.84814,66.32859 12.86612,6.63098 14.55255,6.61405 27.72148,-0.27822 z m -19.49532,-156.41766 -12.74068,-0.2798 -0.25932,-49.7202 L 259.5,240.5 255.17465,254 c -2.37894,7.425 -9.56694,29.8125 -15.97334,49.75 L 227.55332,340 h -11.54753 -11.54753 l -9.69318,-30.25 c -5.33124,-16.6375 -12.24806,-38.35 -15.3707,-48.25 -3.12264,-9.9 -6.03611,-18.39979 -6.47438,-18.88842 -0.43826,-0.48864 -0.71206,21.22374 -0.60842,48.24973 L 172.5,339.99946 158.75,339.99973 145,340 V 274.5 209 h 21 c 16.13333,0 21,0.28968 21.00001,1.25 1e-5,1.35849 0.76511,3.77153 17.20118,54.25 6.08882,18.7 11.37435,34.34241 11.74562,34.76092 0.37126,0.4185 5.30264,-13.5315 10.9586,-31 5.65597,-17.46851 12.30337,-37.94842 14.77201,-45.51092 L 246.16585,209 H 266.58292 287 v 65.44098 c 0,35.99254 -0.3375,65.58004 -0.75,65.75 -0.4125,0.16996 -6.48331,0.18311 -13.49068,0.0292 z M 382.07973,331.5 c -3.70645,-8.50028 -13.04065,-30.51033 -16.4462,-38.78016 l -1.55668,-3.78017 -12.78843,0.28017 L 338.5,289.5 338.23283,314.75 337.96566,340 H 324.48283 311 V 274.5 209 h 32.95078 c 20.58851,0 34.93891,0.42184 38.25,1.12438 16.36165,3.47158 27.7364,15.40424 29.62311,31.07607 2.1737,18.05574 -4.11765,33.30906 -16.71104,40.51574 -2.53707,1.45186 -4.7441,2.7284 -4.90451,2.83677 -0.31735,0.21438 7.77224,18.58007 18.20042,41.32017 3.62518,7.90522 6.59159,14.43022 6.59202,14.5 4.3e-4,0.0698 -6.52365,0.12687 -14.49796,0.12687 h -14.49874 z m -11.41009,-64.64703 c 14.71712,-3.70582 19.11831,-23.28061 7.44322,-33.10455 -4.26074,-3.58518 -8.0577,-4.22596 -25.11286,-4.2381 l -14.5,-0.0103 -0.27159,19.25 -0.2716,19.25 h 14.07878 c 7.74332,0 16.12864,-0.51616 18.63405,-1.14703 z"
       id="path1" />
  </g>
</svg>
